# xmcd
#
# Track frame offsets: 
#        150
#        18740
#        38910
#        56392
#        77690
#        95700
#        112420
#        130190
#        151785
#        171897
#        193415
#
# Disc length: 2863 seconds
#
# Revision: 0
# Processed by: cddbd v1.5.2PL0 Copyright (c) Steve Scherf et al.
# Submitted via: ExactAudioCopyFreeDBPlugin 1.0
#
DISCID=960b2d0b
DTITLE=Performing Organ Process - Best Of
DYEAR=1987
DGENRE=Pop
TTITLE0=Mysterious
TTITLE1=Don't Stop The Dance
TTITLE2=No Bad Emotion
TTITLE3=Call Me: 1.0.3.0.4
TTITLE4=I Don't Know
TTITLE5=Take Me Home
TTITLE6=Dance With You
TTITLE7=Stay (Hey You)
TTITLE8=Alessandra
TTITLE9=If It's True
TTITLE10=My Friend
EXTD=
EXTT0=
EXTT1=
EXTT2=
EXTT3=
EXTT4=
EXTT5=
EXTT6=
EXTT7=
EXTT8=
EXTT9=
EXTT10=
PLAYORDER=
